<?xml version="1.0" encoding="utf-8"?>
<svg viewBox="18.872 7.937 64.791 64.789" width="64.791" height="64.789" xmlns="http://www.w3.org/2000/svg">
  <path id="Path_2520" data-name="Path 2520" d="M 74.077 63.141 L 64.477 63.141 L 64.477 48.107 C 64.477 44.522 64.413 39.907 59.484 39.907 C 54.484 39.907 53.719 43.813 53.719 47.846 L 53.719 63.14 L 44.119 63.14 L 44.119 32.224 L 53.335 32.224 L 53.335 36.449 L 53.464 36.449 C 55.343 33.236 58.837 31.317 62.557 31.455 C 72.287 31.455 74.081 37.855 74.081 46.181 L 74.077 63.141 Z M 33.287 27.998 C 28.998 27.999 26.317 23.357 28.46 19.642 C 30.604 15.928 35.965 15.927 38.11 19.641 C 38.599 20.487 38.856 21.448 38.857 22.426 C 38.857 25.503 36.363 27.997 33.287 27.998 M 38.087 63.141 L 28.477 63.141 L 28.477 32.224 L 38.087 32.224 L 38.087 63.141 Z M 78.863 7.941 L 23.653 7.941 C 21.043 7.912 18.903 10.002 18.872 12.611 L 18.872 68.05 C 18.902 70.661 21.042 72.753 23.653 72.725 L 78.863 72.725 C 81.478 72.758 83.626 70.666 83.663 68.05 L 83.663 12.607 C 83.625 9.993 81.477 7.902 78.863 7.937" fill="#0a66c2"/>
</svg>