<svg xmlns="http://www.w3.org/2000/svg" width="6045" height="3778" viewBox="-5455 -1520 6045 3778"><path d="m-1303.589-1889.264.047-.008.226-.037.373-.062.272-.044.101-.017.144-.024.048-.008q.04-.006.056-.01l.024-.003.273-.045.225-.037.296-.05.124-.02.182-.03.191-.032-.05.008-.14.024-.213.034-.266.045-.302.05-1.207.2-.213.034-.14.023-.05.009M-3918.554 1378.83l-70.56 4.745-60.952-2.552-7.43-3.57 69.537.973 66.905.255 2.5.15m-336.595-29.21 59.982 11.532 66.402 11.196 24.955 4.767-72.948-6.004-61.932-14.295-16.459-7.196m361.432 42.536-24.966 5.771-24.966 5.772-84.105-1.957 29.895-1.572 58.349-1.689 45.793-6.325m-135.242 33.697-36.744-1.303-36.744-1.304-23.204-4.011 76.284 5.457 20.408 1.161m907.139-2068.153 30.77 25.176 30.77 25.176 4.274 7.259-65.814-57.611m-144.847 2014.196 13.784-5.336 13.784-5.336-33.215 9.995 14.657-4.98-9.01 5.657m46.642-37.562 21.473-11.937 21.472-11.936-28.013 26.735-14.514-2.4-.418-.462m-1316.693 151.357 68.603 35.384-74.724-23.4-51.09-28.319 22.074 6.605 30.636 11.369 4.5-1.639m746.017 97.338-38.25 6.173-38.25 6.173 54.448-11.146 74.63-10.784-41.058 10.112-11.52-.528M-4958.455-475.362l23.154-28.783 23.154-28.783 56.575-54.736-47.939 54.072-51.956 55.897-2.988 2.333m56.611-52.074 28.154-26.853 28.153-26.853 36.516-30.49q-29.605 28.091-59.208 56.183l-33.615 28.013m1021.658-411.814-67.89 4.793 14.814 3.422-74.507.94 43.644-10.725 79.535.994 4.404.576m208.12 37.022-32.719-7.447-32.72-7.447-.774-3.807 66.526 7.132-2.921 9.296 2.609 2.273M-5219.474 553.73l8.384 34.19 8.383 34.19-.668 8.02-18.588-70.401 2.49-6m398.007-1118.814-46.57 38.286-8.228-.032 54.797-52.456 56.738-49.456-35.911 39.507-20.826 24.151M-5098.391 909.84l-8.92-24.668-8.92-24.669 39.467 65.201 16.146 33.396-37.773-49.26m412.27-1595.957 24.002-19.048 24.003-19.047 80.761-47.618-41.932 27.736-59.39 41.15-27.444 16.827m179.298-90.744 4.865-10.839-69.608 38.075-62.938 31.45 64.455-38.349 66.841-34.457 26.138-22.576-14.166-2.101-43.438 15.8 74.279-34.024 21.234 3.583 31.737-21.966 14.334-7.109 61.422-27.558 12.878-1.885 49.7-5.072 51.37-19.99 23.079-10.801 78.567-9.612 80.765-11.884 72.869-3.958q-15.127.567-101.573 11.49l-30.362 11.422 22.953 2.984-54.279 1.062-14.324 7.57 6.592 1.607q-65.227 18.763-139.832 41.56l-74.551 24.894-74.615 28.69-65.426 33.327-18.966 8.667m1674.65 1638.405 4.394-17.883 4.394-17.882.536 13.897-15.548 35.87 6.224-14.002m-394.335 436.42 33.413-17.122 33.414-17.123-79.895 59.34q1.088-3.36 13.068-25.095M-5013.48 978.106l-5.866 4.824-5.865 4.823 8.508 28.94-24.344-53.314 27.567 14.727m-41.432-73.731 25.817 62.093-21.959-18.867-23.42-31.836-5.477-30.051-12.575-18.327-20.43-40.773-6.125 7.644-26.416-65.324-23.125-67.697-7.097-29.415 26.725 69.655-21.895-76.511-13.475-66.664-12.23-63.659 18.116 68.35 9.488 42.491 17.467 63.16 4.277-10.882 24.931 71.51 26.499 65.527 37.482 65.133 3.422 4.443m2049.88 83.987 38.548-50.37 12.504-10.571-43.939 66.987-43.831 54.901 23.047-37.766 13.672-23.181M-4400.733-698.81l-4.878-3.819-4.878-3.819 59.14-23.94-22.681 12.65-26.703 18.928m139.688-55.984-65.09 23.09-31.868 12.135 68.2-28.507 73.259-20.444-19.482 8.107-25.02 5.619m-735.083 1582.765 16.392 23.85 41.334 61.992q37.544 52.933 72.563 100.41l-37.73-39.924-36.246-52.353-38.393-61.093-17.92-32.882m112.524 145.527-30.771-52.454-28.452-52.24-18.146-25.39q-11.396-27.838-43.764-100.63l17.462 27.623 31.007 55.839 34.718 59.477 40.048 59.622 8.149 32.106 26.804 10.998-37.055-14.951m-48.684-124.072 33.339 48.51 29.442 44.449-19.195-21.824 33.35 45.918 4.928 11.23-41.761-53.417-34.059-54.025-29.615-57.176-19.414-40.139 62.038 101.885-19.053-25.41m-146.159-255.25 8.795 32.149 8.794 32.148-10.857-17.735-10.535-49.082 3.803 2.52m-12.125-59.133-7.831-17.487 3.367 35.44 11.88 60.486-5.737 5.861 17.236 26.8 2.181 34.376-11.81-17.122-30.84-122.832 7.882-11.577-7.228-26.516-9.958-68.599 10.56 39.768 4.235-35.233 13.529 68.323 2.534 28.312m184.439 709.712-38.684-35.535-37.075-34.75 15.851 4.07-30.62-36.485-7.213-7.635-38.499-68.533 25.76 31.14 50.459 65.611 48.25 64.931 11.77 17.186m-151.799-753.569 2.171 39.712 2.4 33.8-25.892-15.226-13.22-53.187q-8.145-87.733 3.052-27.553l-7.803-67.715-4.466.619-5.156 27.217q-10.635-35.396-13.26-74.067 9.854-13.373 3.026-68.824l7.116 6.104q3.563 122.163 8.218 17.177l1.862 67.688 8.651-157.23q38.786-211.02 54.746-233.886l4.904 1.896-5.206 38.58 14.284-14.985q110.644-286.92 292.885-466.095 68.277-78.173 260.771-194.431-86.443 43.87-12.485-1.729 26.573-19.62 195.438-85.55 185.994-51.173 195.217-46.674l217.601-6.291q198.541-5.164 435.094 93.123 158.274 74.105 214.899 122.85l-37.446-29.664q33.714 12.296 167.264 125.739l-42.348-40.028 25.865 13.379 161.668 168.035q42.525 52.454 78.902 122.588 11.58 1.56-32.26-74.824 31.771 35.4 95.638 193.914-47.129-145.517-133.672-258.154 52.297 49.555 127.363 198.956l-5.22-32.243q-39.346-79.088-47.017-115.57l38.754 65.726-26.813-51.79q-33.93-59.655-79.142-113.817-13.364-24.234-166.294-171.762 66.427 59.792 102.03 80.958l-89.876-98.025q-6.015 1.803-5.432 6.996l-99.598-79.082-184.48-108.807-190.91-73.28-110.277-33.21q145.124 29.773 269.417 80.836-111.35-44.23.177-7.279l66.923 31.554-55.804-36.058-224.958-79.277q126.721 23.053 266.65 94.814l-34.007-28.87-218.866-76.817 36.547 5.484-76.183-22.302q25.323-4.101 227.383 68.226L-3437.213-861q-26.61-17.267-218.802-73.535l90.937 22.848q-88.18-24.529-145.75-49.83l-90.144-11.648-157.192-1.452-115.559 24.97q-120.316 13.475 40.596-13.468l-66.51 7.049q-137.006 26.74-30.46 17.726-29.58-8.075-304.955 84.891 54.44-19.724 20.153-15.362l-73.739 31.07 11.13-1.613-41.997 25.192-23.442 5.58q43.52-30.677 44.167-37.681l-77.047 37.78q-60.519 26.187-141.35 83.004l-66.034 53.498q-50.412 57.817-12.768 22.745l-116.183 109.302q125.083-139.348-3.738-15.728-37.732 18.698-186.365 242.696l-41.505 70.392-58.561 149.545 1.192 22.723q37.463-103.41 47.021-103.53-31.576 71.731-52.663 175.982l23.54-78.573q7.716 21.246-33.12 153.168l7.526-8.706-7.847 50.111 9.707 6.81q28.442-159.55 66.57-239.13-57.53 157.91-66.842 312.239l8.549 292.556-4.096 5.39q-8.073-22.077-19.58-94.913l-2.816-81.193-6.35 150.296-8.189-54.689-4.571-82.986q15.77-155.255 6.968-173.18-17.22 140.496-14.397 195.811l-19.25-55.525-.958 146.944q-8.213 43.147 57.945 262.59l19.052 32.546 68.996 176.418q23.195 57.46 105.165 199.092-40.074-62.602-76.43-125.065l-25.71-27.407 66.997 114.303q335.599 528.117 928.088 599.543l4.916-3.09-81.948-10.734 38.87.144-.095-3.243-70.413-11.264-1.633-15.286q-32.545-.544-128.556-31.362-11.998.747-206.061-86.379l-157.05-92.395-36.504-45.345q-52.979-20.6-73.517-48.397-64.558-56.95-95.332-108.63l97.952 71.291q60.132 60.352 110.457 100.262l-65.21-47.667 65.52 54.357 38.591 17.576q30.938 26.708-23.475 4.601l267.574 126.87q48.193 24.523 129.989 42.255l187.18 41.713q113.359-7.77 25.574-13.62 66.684-10.347 148.317-5.69l207.794-24.585q69.023-11.8 148.547-31.32-28.948 6.756-52.833-4.302l-74.506 14.074-21.61-7.23-76.131 16.408q71.986-18.438 75.614-24.511l-79.695 11.028-13.502-8.769 21.706 2.258 42.662-29.519 95.686-10.684 85.58-38.431 37.278-3.157q59.045-28.315 122.99-40.86l60.966-27.989q-13.026-1.27-78.622 26.447l38.868-26.535q83.35-37.119 145.873-76.35-90.679 73.733 30.304 1.745l115.767-89.456-30.91 44.793q247.631-253.946 310.408-372.454l-34.624 62.35 39.47-59.12 57.12-139.303-4.244 22.441 34.428-64.032 5.45-34.569-14.384 11.894q-35.743 78.73-50.31 79.275l29.439-65.217-58.148 63.554-23.031 52.323.637-13.861-35.61 55.775 27.491-55.208q-20.741 8.195-54.665 64.678l28.559-59.946-30.204 19.786-24.559 50.526-6.355-16.114 26.983-46.501-114.421 158.244-33.215 28.141q-62.275 85.838-89.21 105.9 49.006-14.26 78.99-50.66l-84.406 90.91q-62.224 43.855-84.17 65.664l-62.753 29.082q-25.882 33.962-150.603 98.712l14.291.47 67.017-24.884 148.352-92.914 15.007 4.626-40.6 44.682q-62.162 46.063-119.378 73.996l-12.005-5.21 95.397-49.882-56.728 16.111q-168.42 93.895-209.56 96.268l-11.954 8.913 71.603-23.582-65.966 36.624-10.644 14.387-90.415 12.968q-31.857-17.27-70.694-5.52l-12.748 9.098 45.663-2.531q-67.982 16.879-118.352 18.724-18.98-14.45 1.727-18.701 22.736-14.514 96.843-14.23l108.81-41.109-53.115 5.719-100.135 37.826 11.774-16.157q-60.193-10.777-58.34-3.281l-1.443-6.332q-114.932 20.551-315.071-11.65-124.657-37.593-20.338-15.998-91.755-19.445-94.38-14.771l-119.893-37.19-43.91-21.576 131.254 40.482 64.61 11.195q-20.627-6.532-3.729-15.175l-64.704-12.812-213.223-86.62q-38.455-29.677-7.4-18.203l-52.732-34.125 108.621 58.679q68.984 25.827 123.464 36.945l5.955-4.458q-317.274-109.069-538.81-380.251l-40.339-52.698 26.043 29.193q-91.137-145.476-127.591-262.29-60.092-193.584-56.441-380.317l-1.543-2.83-.007 67.512 12.053 177.772-7.431-25.593m856.462 883.97-34.614-5.968-34.615-5.969-28.133-9.945 56.372 8.54 40.99 13.342m126.276 12.324-24.29 1.211-24.29 1.21-23.663-5.78 66.783 3.411 5.46-.052m812.811-218.062-26.38 20.434-26.38 20.433-40.561 25.857 62.74-45.666 30.581-21.058m-317.327 194.108 32.706-13.165 32.707-13.165-6.108 6.222-64.327 29.764 5.022-9.656m273.648-128.057 45.11-31.568 49.036-35.723-30.302 26.882 25.955-15.219 43.824-31.845-18.78 23.12-61.286 49.963-53.481 36.389 50.07-37.589-27.735 13.837-52.831 32.214 38.567-31.254.6-6.336-8.747 7.129m510.811-817.758 4.32-11.504 4.32-11.504-10.622 64.484-7.528 1.546 9.51-43.022m-675.757 927.678 12.12-3.801 12.119-3.8-63.943 30.268 26.298-15.162 13.406-7.505m688.348-940.849 6.6-1.242 6.598-1.242-17.873 47.158 5.575-39.316-.9-5.357m-797.14 1002.356 56.254-18.982 31.918-4.374-57.844 27.512-51.495 13.97 28.576-20.585-7.409 2.459m729.883-654.775-10.922 10.803-10.922 10.802 31.295-73.135 5.618-5.308-15.07 56.838m10.327-19.704 5.938 23.697 13.452-24.52-3.05 22.525-29.59 52.528-7.668-7.659 13.572-37.606 9.683 2.11-2.337-31.075m-463.37 567.783 18.369-6.393 18.368-6.393-2.673 14.952-26.316 4.147-7.747-6.313m582.11-897.318-3.765 34.534-3.765 34.534-5.02 28.858 2.245-49.285 10.306-48.641m-7.45 146.49-13.029 76.796-16.38 40.668-22.616 39.325 27.99-55.752 4.491-26.414 8.495-37.893 11.049-36.73m-2.887 59.279 6.02 6.796 6.021 6.796-14.622 31.23-11.873 14.994 14.454-59.816m-311.194 585.447-11.115 14.508-11.114 14.509 7.268-23.14 22.859-20.69-7.898 14.813m116.496-140.806 8.24-2.426-8.091 19.426-42.758 50.844-55.945 59.103 32.342-42.176 21.313-26.2 19.977-35.855 39.555-40.833-14.633 18.117M-4386.528-846.622l42.883-18.773 34.976-11.082 29.689-2.72-44.119 13.815-29.875 9.655-33.554 9.105m1401.529 330.619 50.647 50.152 45.28 55.097 41.705 60.872 39.662 68.073 38.605 77.063-7.33-11.977-37.383-69.15-41.312-67.555-45.017-64.183-48-58.999-36.857-39.393m295.303 1053.386-3.76 16.845-3.759 16.844 1.362-19.934 17.995-76.764-11.233 61.394-.605 1.615m-895.075 990.396 37.103-12.699 37.103-12.698 28.381-14.901 42.526-7.274-85.18 33.435-59.933 14.137m469.996-252.759-62.09 48.373-59.845 40.703-13.567 12.646-29.281 21.313-54.612 27.308-5.379 8.971-20.029 15.338 57.291-34.925q12.403-1.354 30.936.325l.343 6.855 66.909-40.228q7.213-6.668 77.873-51.72l-1.503 5.598 30.843-21.614 61.082-60.175 33.9-40.358-2.62-7.342q24.735-31.393 51.467-70.063l2.49 2.442-7.08 17.937q91.938-124.187 93.554-130.747l35.975-45.257-21.328 15.322-46.704 67.806-52.918 62.527q5.301-5.762 58.075-84.944-55.03 69.817-85.05 106.391l-55.896 62.946q-35.2 27.806-102.049 92.364l-8.223 1.775 51.394-40.75-23.958 11.183m332.659-400.89-6.445 6.522-6.444 6.523-6.376-1.166 34.046-74.061-20.39 68.556 5.609-6.375m51.17-149.23 20.323-25.268 2.938 26.77-21.371 37.779-11.642 13.898 11.543-41.373-1.792-11.806m73.428-647.613 9.592 76.66 2.607 81.426-4.642-34.656-6.758-76.254-11.511-78.236 9.844 23.785.868 7.275m-722.29 1397.813-54.894 16.932 32.948-3.086 51.986-24.309 55.471-25.488-57.532 11.788-27.979 24.164m-1850.539-799.02 14.493 64.16 15.038 31.575 21.484 65.722 7.794 31.65-53.998-151.9 2.078-11.804-6.889-29.402m2481.104 177.894 17.199-35.444 17.199-35.444 23.267-46.443-27.08 65.92-30.585 51.41m-2.853 30.886-5.02 6.585-5.019 6.584-14.572 36.428-18.197 23.375 42.808-72.972m-2527.51-308.016-6.15-38.417-6.15-38.417-6.176-82.842 6.058 36.387 7.503 86.191 4.915 37.098m146.805 412.887-21.605-29.514-21.606-29.513-19.996-62.528q45.822 88.894 63.207 121.555m2371.458-48.192-20.568 37.119-20.569 37.118.534-8.385 42.3-72.443 4.46 1.289-6.157 5.302m-5.758-389.024 4.407 10.013-21.187 73.487-22.213 46.716 21.346-61.662 14.665-51.142 2.982-17.412M-3292.99-756.356l-64.066-43.291 53.834 19.76 42.096 30.263 16.188 16.196 62.57 43.915 43.2 34.455-56.286-39.113-70.452-45.426-52.976-31.157 25.892 14.398m181.478 81.804L-3170.336-711q-84.367-56.35-115.13-75.293l-8.269-7.381 47.513 27.614 49.782 33.795 65.806 40.389 19.123 17.324m-917.762 2301.44 72.246-.013 38.831 2.71-39.213 5.086-74.685-3.83 30.028-14.431-27.207 10.477" style="fill:#000;fill-opacity:1;stroke-linejoin:miter"/><path d="m-2275.557 400.14-20.488-4.675 26.358-1.865.289-7.49 8.667.112 17.622 3.18 20.597-4.697 30.775-2.359-18.858 7.578-9.067 2.296-18.893 5.423-31.75 2.713-5.252-.215m-287.805 7.36-1.01-9.789 16.884 4.292 15.243-5.014 3.41 3.48 19.45 2.946-18.299.681-26.874 1.743-8.804 1.662m-23.774 45.781 11.743 1.082 11.744 1.081 15.715 2.898-31.984 2.59-11.502-5.455 4.284-2.196m21.326 11.404-7.665-.05-7.666-.052-.995-2.032 29.421-.874-13.128 3 .033.008m57.336-18.325-11.992-5.63-10.111-.192 20.645-.814 14.617 1.393-12.981 5.4-.178-.157m-105.83-76.878 5.592.222 5.592.221 17.621 4.673-22.688-1.861-6.117-3.255m111.826 93.646-10.147-9.035 18.316-5.329 3.458-.414 10.583-9.003 16.809 3.76-12.452 5.363 9.495 2.55q28.91-.11 46.34 2.333l7.182 8.043 24.842.877q77.938-4.666 93.665-5.193l7.087-3.56 65.063-1.659q15.444 2.057 51.827 1.214 18.426-1.848 87.812-5.15 4.172-1.759 33.425-5.869l52.724-13.455 14.74-1.918q-6.973-1.138-32.718-2.97l32.413-3.4-23.584-10.334-30.433 3.481-22.336-7.805-9.482 4.898-56.135-.024-25.795-3.671 25.63-.857q6.661-4.33 16.02-5.22l-24.135-3.346-1.28-1.885 27.515.93q-31.311-3.908-42.477-8.45l31.313-.528q-26.27-5.207-28.254-8.323l-32.201-5.75-24.334 7.88-2.75-4.236-14.468 6.96-22.306-.286-27.607-2.345q-2.166-2.844-19.135-8.064l-33.262 2.498-14.41 3.21 3.58-5.672-63.047-2.823-22.778 6.338 3.958 3.436-4.532 2.693-17.185 2.783-13.627 8.896 30.11-.996-6.944 2.219q-38.396 4.77-53.817 8.7l-20.4-3.62 26.683-4.863q-13.886-2.603-14.007-7.867l27.383.83-13.918-12.796-29.656-1.405q-29.685 5.096-47.849 4.862l-31.285-7.138 11.765.343-10.44-5.28q-37.473-8.626-53.025-14.557l-32.03-6.4q-34.432-5.554-60.555-8.023 1.967 3.368 25.024 12.414 31.41 4.663 51.5 5.13 7.097 3.758 39.008 8.897-5.953 3.456-28.608 6.373-11.275-5.375-11.116-9.696l-21.793 2.896q-23.148-4.66-52.094-4.429l-15.09 4.121q-23.784 3.887-51.714 7.705l-12.903 2.732 20.025 5.055-.745 6.298 6.511 2.455-19.904 6.33-19.994 3.464-15.224-4.44-14.472 4.462-6.02-3.618q-43.534-8.174-38.97-8.435l-31.499 3.032-32.182-2.8-17.716.72-10.46 3.946 12.773 4.796-.466 3.758q12.268 5.694 21.895 14.273 2.793 9.618 6.229 14.301l-8.932 4.669 22.288 7.963 21.798.606 12.6-7.288-9.175-8.714 19.19 1.994 20.159-1.604q7.519.41 31.194-.082-28.694-5-42.818-12.778l29.923-6.186-11.427 4.407 12.874 2.73 31.48 1.996-3.64-7.227 14.68-4.34 8.662 13.246.358-5.415 17.751 6.573-13.525 2.44-15.208 7.364 17.261-2.706 7.522 10.375 16.385.355 42.749 6.387 7.546 4.773 22.864-.887-11.754 3.273-12.2 6.39 54.378 2.004 4.139 7.305-30.953 1.64 4.349 4.27q32.32.828 65.678 1.365l30.81-1.933 10.626-2.013q-1.455 2.323 84.76-1.098l30.128-3.506-28.688 1.99-10.77-3.656m-366.57-21.489-6.478-1.11-6.479-1.109-8.03-5.298 17.784 1.38 6.62 4.51-3.417 1.627m830.94-43.95 14.771-1.698 14.771-1.697 24.762.75-32.317 1.382-21.987 1.262m-849.332-19.067 24.647-.202 16.488-1.599q-3.664-2.75-16.81-10.287l-12.175-3.234-26.482-.526-7.064 9.198-7.668-4.142-20.98 2.925 6.845 1.67-.85 3.195 26.238-.386 27.847 1.147-10.036 2.24m793.346 19.924 1.973-2.562 1.972-2.562 23.458 4.663-31.05 1.046 3.648-.585M-1985.797 1109.434l21.309 27.498 16.567 64.018 75.56 28.012q22.27-1.143 69.124 17.964l169.375 81.201 31.687 19.936 66.45 24.636q55.231 10.15 82.568 23.746.064-1.374 43.175-17.683 9.392-9.665 6.417-30.554l35.91 12.713-16.837-19.236 41.985 6.988 1.805-9.52 170.443 48.288q41.554 8.95 96.392 16.072l17.86-1.006-79.515-15.709-18.61-14.68q50.028 4.055 85.359.767l33.875-16.438-30.765-9.298-37.956 3.86-67.892-15.415-28.222-15.222 35.56-5.111 76.158 15.018 1.405-6.21q-112.274-30.938-206.942-76.65l-31.576-3.98 20.305-8.39 39.015.918 33.367-17.482-104.399-12.695q91.304-.62 111.933-2.426l28.055-5.747q114.99-5.417 112.377-7.237l197.532 9.11q95.162-1.1 109.628-3.974l153.473 5.102q32.413-7.792 65.612-9.795l42.945.883q32.673-2.827 78.715-3.054l32.12-6.68 1.437-4.937 24.877 6.147 28.34-8.025 40.007-.852q27.069-9.57 74.61-12.774l-8.756 5.457-39.099 5.635 21.18 3.733 77.451-2.48 35.73-4.2 146.457-10.4 27.473 1.926 158.87-3.19 38.446-2.873q-.069-3.154-115.157-.697l13.13-5.9 35.193-2.522q106.603-.446 121.201-3.178l110.081-8.091 35.683-5.761q2.88-4.728-159.207 3.764-20.112-6.7-2.095-11.09-45.569.444-74.49 4.5-41.65-2.341-68.555-1.557l-41.71 6.84q-29.434-4.386-165.143-5.593l-.322-14.467q20.517-6.011 62.02-9.4 55.566 11.861 177.511-.335-39.138-4.607-87.309-3.935-29.922-11.17-19.254-12.106l-38.14.826-6.372-7.587q20.83-2.487 163.946 1.343l24.52-1.669-42.362-3.455q-53.452-2.85-154.395-5.608-37.614 6.543-64.15 6.765l-36.828 8.433-34.91 2.06q-49.692.312-48.636-5.295l-19.904 2.576-32.886-8.828-39.665 8.739q-10.936-6.258-52.743-12.31l-37.131 2.712q-47.035 9.247-47.58 15.464l-15.367-3.957 12.493-5.965q-37.064-2.493-69.635 1.476l-47.02-1.112-116.406-8.895-9.363 5.147q-42.457-11.787-66.126-12.068l-89.203-6.996-26.698 2.507-36.63-8.126q-28.052 2.551-60.76-.164-25.542-1.24-67.61-11.548l-23.169 23.186-14.697-17.021-31.07-9.448-29.448 3.64-23.858-11.098-33.197 6.336q-42.66-4.112-74.426-12.745l-41.424-2.992-12.12 6.8q-32.355-9.033-75.436-12.732-33.678.308-69.707-1.96-73.714-9.358-126.91-8.315-32.87-1.476-134.965 2.39-26.137 6.945-67.814 7.008l-39.152 7.73q1.905 11.109 18.213 13.643-38.793 5.773-74.767 17.26l-31.38 31.115-4.566.963-43.161-6.607q-34.637 25.547-37.332 32.205M-1598.186-100.704l-18.063 6.236 17.901-11.641-7.604-4.17 15.443-5.423 9.646-13.1 13.496-5.175q14.953-11.027 41.939-30.27l-17.834 18.558-6.998 4.322-3.467 8.969q-30.244 21.997-44.46 31.694m-277.017 175.559-9.135-5.783 14.006-5.448q8.948-6.212 25.716-18.24l11.02-2.725.353 2.798-8.196 6.735-26.695 16.592-7.07 6.07m.57 53.113 11.378-3.93 11.38-3.93 21.186-14.771-20.913 17.432-24.355 10.257 1.323-5.058m26.73-2.795-9.524 5.759-9.525 5.758-5.361 1.64 26.463-16.542 1.104 2.66-3.156.725m46.434-49.384-10.419 1.76-9.277 6.735 4.444-9.957 18.986-9.294 8.06.258-11.794 10.498m-143.179-3.467 5.724-3.867 5.723-3.867 9.881-3.643-.295 6.03-21.033 5.347m157.736 14.272-14 2.47 7.24-15.824 11.57-3.687-3.566-6.096 18.876-9.899-6.3 8.212 15.535-7.3q19.59-9.993 50.396-29.568l-4.177 12.706 21.09-9.441 104.561-69.981 1.866-4.764q26.01-17.111 53.193-34.204-.095 2.614 71.65-42.633l74.72-51.16 28.74-21.776-1.054-4.364 25.235-17.933 17.29-16.487-3.86-1.35 22.737-15.448q-7.17 1.061-39.068 22.045l25.846-19.094q-.83-6.39-7.559-9.701-22.099 11.957-48.961 33.667l4.471-6.782-22.513 7.714-3.447 7.383q-57.78 37.263-69.932 39.666l-11.116 4.09 26.877-16.37q2.198-6.89 5.892-9.204l-24.077 12.584-10.83 1.265 27.314-14.804-5.645-1.893-24.433 13.205-2.553-2.31 27.63-17.87-26 12.14-5.813-.073-30.117 10.174q-33.095 23.698-41.705 33.623l-2.588-.237.362 3.754-35.011 22.709-19.606 9.02-7.58-1.587-28.73 14.06-6.949 9.868-27.896 15.059 4.053-7.01q-31.259 19.964-54.034 30.262l-21.953 18.613 16.614-5.072-20.25 15.62 3.343 4.076q-10.215 4.53-12.896 17.58l25.113-17.773-50.175 42.813-24.408 13.957 12.649-16.89-11.97 2.208 3.222-4.913 25.49-14.75-1.758-2.818-15.09 1.036-24.369 8.752q-22.817 15.091-34.26 26.752l-26.362 14.538-31.704 11.772 17.072-9.022-10.135 1.192-30.904 8.348q-15.145 6.113-49.636 17.611-76.803 32.025-84.814 38.57l11.584-4.007 1.045 3.624 14.97-2.776 52.328-22.288 13.608-9.09q11.157-.833 41.063-12.606l-26.277 19.288-7.09-1.215q-18.023 12.12-42.355 20.97l-46.57 26.66q-17.956 22.4-70.871 53.435 25.297-6.613 41.9-4.225-.35 9.861-18.622 23.611-20.636 14.645-34.485 16.697l-9.27 6.409 6.032 4.86-25.473 9.85-1.407-6.314-15.74 8.968q-2.06-3.175-17.159 3.85l-25.143 19.065-28.612 14.997-.708-3.127-13.86 12.787-16.03 3.49 3.702 10.572 4.049-1.318 20.594 4.76 8.211-1.867 7.92 12.879 10.751-.676.449 3.726 42.542-19.456 9.072-12.982-15.513 1.701q25.456-19.119 31.333-21.24l7.46 1.54q28.123-22.301 30.516-27.931-36.829 16.871-46.055 17.729l18.11-18.934 5.683-.106-3.952 8.375 23.653-15.427 12.151-9.38-1.476-6.178 13.347-9.737 11.799 5.789q-1.884-.05 17.779-13.812l-.408 9.813-21.581 13.548 8.292 4.373 11.307-15.487 10.183 7.484 56.451-24.65 1.501 4.446 43.447-24.344-26.032 17.948.938 8.026 47.81-28.974 11.673 1.785q-19.012 8.86-37.18 29.921l83.69-49.274q31.642-21.481 37.113-26.764l10.205-4.95 54.785-34.748q33.14-21.8 36.272-26.823l-27.316 18.71-6.976-.006M-2155.77 283.82l-16.751 6.656-10.46 2.544 22.322-15.132 1.535 2.793-1.58 5.999 4.934-2.86m-115.72 45.832-.741-5.705-.74-5.706 7.841 3.822-6.672 4.048.312 3.541m28.141-58.907 1.915-3.493 1.914-3.494 11.186-3.514-15.008 9.573-.007.928m875.593-513.194 11.71-9.042 11.708-9.042 28.658-16.93-19.796 13.811-26.75 17.192-5.53 4.011m-838.677 483.223 27.34-15.641 10.274-6.876-3.625-.994-9.658.869-13.754 1.969-14.479 3.71-21.81 14.405.641 9.918-5.184-1.497-17.808 12.665-8.289 8.49 25.663-13.456-3.655 5.083 24.1-16.984 13.275-6.238-3.031 4.577m784.49-449.564-1.957-3.149-1.959-3.149 22.326-5.918-9.192 7.229-9.217 4.987" style="fill:#000;fill-opacity:1;stroke-linejoin:miter"/><path d="m-1694.127 925.009-14.91-14.329 22.84 13.812-1.032-12.058 16.248 14.365 17.072 5.326 6.23 6.071 25.607 14.121-1.389 2.5-10-.594-4.794-2.31-28.803-12.014-27.069-14.89m-265.024-158.558 2.682-9.951 12.144 11.606 13.482 3.475 2.01 3.672 22.602 16.793-14.954-6.95-16.407-6.15-21.559-12.495m-45.932 25.149 8.923 8.616 8.923 8.617 19.103 10.508-28.093-13.25-16.484-9.897 7.628-4.594m13.28 21.866-8.054-5.143-8.053-5.143-1.719-3.06 26.181 16.51-12.539-3.885 4.183.721m61.77 17.314-6.81-9.692-11.882-6.012 24.923 8.502 10.806 9.18-7.39 3.924-9.648-5.902m-55.1-125.684 4.633 2.758 4.633 2.758 12.18 10.927-12.726-4.635-8.72-11.808m51.617 143.314-5.994-11.672 17.757 1.575 10.072 8.353 5.885-5.203 12.563 4.995-11.233 2.134 1.438 3.833q17.942 16.442 43.684 28.37l-1.089 5.664 8.258 13.553 110.128 62.114 6.528.386 198.938 119.548 19.261 4.217 25.566 11.144 49.203 17.656-5.622-5.14-26.342-15.932 28.184 13.934q-1.904-7.118 1.595-13.3l-55.401-30.542 12.974 2.238-9.307-8.4-69.733-40.148-19.53-17.355 26.215 16.452q1.903-2.874 20.901 6.777-30.012-19.254-30.836-26.631l25.162 18.177q.843-8.754-18.979-18.652l3.196-2.024 16.639 6.977-25.23-18.898-.688-8.14-27.747-19.156-24.552-6.709 2.256-3.84-14.835-1.087-18.896-11.263-27.06-22.285-6.071-2.712 1.677-5.18-25.546-19.357-12.95-2.175-18.298-13.536-2.144-6.945q-25.741-11.226-51.747-32.157l-15.902-.741-2.591 1.992q-18.755-11.706-32.023-9.466l24.648 18.988q-36.328-18.488-52.937-21.855l-23.651-15.095 17.482.41-7.521-10.8q10.056 2.3 37.344 22.7-14.661-12.302-13.738-24.879l-22.914-16.036-45.618-21.156-21.776-22.762q-3.172-3.16 7.348-.195l-59.996-61.307q-60.206-53.458-72.608-58.467 8.347 7.55 10.201 16.345l15.454 15.224 41.348 31.641 7.586 12.005 20.044 12.778-2.71 3.59-13.586-1.45-2.836-8.042-16.99-15.12-68.012-46.484-9.838.56q-27.769-10.795-50.444-26.755l-11.579-3.64 11.842 15.418-5.66 1.955 5.74 10.815-14.094.025-17.855-8.849q-22.565-15.88-30.941-28.99l4.294 11.399-18.726-12.763 4.371-5.919-15.544-10.836-.812-4.009-13.146-9.934q-29.637-13.24-51.505-35.301l-21.224-7.332-7.35-8.824 11.19 18.323-12.733-5.163q5.778 21.277 12.335 20.875-1.15 5.998-7.055 13.283l8.26 15.099-7.175-.1 37.497 27.707 11.717.684-5.036-13.802q26.894 18.136 32.489 25.404l27.247 14.9-1.026-9.6-21.594-16.057 11.467-5.977q31.59 29.106.095 7.243l19.879 15.447 21.186 11.654.478-7.35 16.328 7.297-.394 14.942 1.563-2.03 13.417 11.108-6.646-.081-24.686-11.168q18.65 5.51 21.104 27.302l36.233 27.043 12.426 15.965 7.852 1.987 22.193 17.559-20.588-9.523-11.727.843 46.794 30.456 5.464 11.382-25.932-14.618-12.827-1.531 81.88 52.567 20.386 7.708 3.336 5.366q28.658 16.332 56.12 33.232 28.616 17.482 52.268 27.207l-28.853-15.465-6.757-8.614m-321.131-228.084-6.348-4.643-6.35-4.643-3.769-7.982 22.631 12.2.32 4.402-6.484.666m-24.182-81.962 4.48.656 4.48.656 7.011 7.897-18.248-10.556 2.277 1.347m801.43 520.527 13.363 6.42 13.362 6.421 28.093 18.01-28.162-15.669-26.655-15.182m-760.398-502.45 24.377 15.562 13.607 8.236-5.57-6.486 1.395-8.96-17.89-13.686-7.092-8.82-20.442-5.633-15.11-6.56-.29-3.327-19.39-11.646 17.956 16.795-8.303-1.367 26.16 14.99 19.359 13.755-8.767-2.854m709.15 471.12 2.551-2.258 2.552-2.258 16.116 16.962-18.369-10.145-2.85-2.301M-1976.805-298.422l21.737-20.366c9.043-17.84 11.228-36.362 6.554-55.565l30.252-14.922 135.18-34.046c132.487-53.842 203.04-84.576 211.66-92.201 30.7-7.417 51.179-13.455 61.436-18.114 37.358-5.774 62.303-11.54 74.835-17.297l6.498 4.756c24.511 5.215 45.659 10.007 63.443 14.376l-31.04 19.276c23.93.178 44.383-.996 61.359-3.522l-25.37 15.126 44.773-7.697-.316 10.193c53.663-16.618 109.424-5.42 109.424-5.42l-18.111 31.252c25.371-5.306-71.183 18.934-15.884 12.955l14.92 17.14-6.809 43.75c-30.116 9.618-12.06-26.253-17.23-21.804-23.851.504-41.511 4.906-52.98 13.207 18.714 2.495 40.032 3.457 63.954 2.886l28.948 15.493c-39.164 4.894-72.214 7.8-99.15 8.719l12.786 2.561 70.023 1.21c25.918 1.822 45.504 4.417 58.756 7.783l80.08 4.338 23.94 2.948c64.68-.156 100.488-1.602 107.425-4.337l105.783-1.2 132.558 4.887 109.52-2.4 27.983 1.364 61.883 7.981 40.047.005 103.002 5.182c18.082 7.081 28.958 10.175 32.63 9.282l79.115 3.76c15.118 5.34 36.946 9.22 65.485 11.642l7.644-2.518-36.107-3.788-19.112-8.018 115.389 5.156 31.392 3.925 130.48 9.354 205.51 4.972 37.084 2.04-9.307 2.604c-43.147-.509-70.644-1.449-82.49-2.822l-28.766 3.142 35.718 4.297c-.214 1.04 34.771 2.125 104.956 3.256l99.483 7.147 68.623 5.73 8.715 6.02-149.202-7.402-26.803 1.723 43.556 7.796-45.797-.506c-23.155-1.639-45.125-2.2-65.91-1.684l-33.565-2.695-35.023-.162-31.872-5.852-15.07 3.246c-25.226-.353-45.813-3.51-61.939-2.832-23.216.976-46.084 4.192-69.198 3.041l-31.733 3.935 8.602 13.21 35.701-.178 32.307 5.742c23.187-4.171 45.124-5.738 65.812-4.701l103.335 4.01-9.314 5.27c-22.765-.348-49.388-.234-79.87.344L95.34-252.043l-37.083-.196-16.917 5.477c43.387 2.251 105.118 2.68 185.194 1.284l13.98 2.181-42.607 2.148-132.6 3.007c-30.745-1.893-52.036-5.494-64.41-6.132-27.837-1.435-50.227-.67-67.062-2.4l-32.952-8.802c-46.5.904-65.849 2.038-58.048 3.4l-34.674-1.781-27.381 4.973c-13.624-1.207-30.154.08-49.588 3.862l-67.217-1.586-33.302-6.497-6.136-8.462-32.927 2.305 27.678 4.04-26.033 2.962-24.81-1.892c-33.094.44-58.153-1.43-75.186-.642-51.376 2.377-88.165 6.382-110.676 7.06l-5.839-5.132-30.954 7.236-65.134 4.773-75.507 3.985-28.604-1.56-32.474 5.853-25.38-3.287-63.09 10.45-31.367-1.197-14.337-11.686c-10.838.69-24.13 4.675-39.874 11.957l-33.389 3.998-24.881-2.573-19.926 9.654-33.695-3.658-34.324 1.573c-23.238 4.445-45.69 7.14-67.357 8.082l-27.705-6.486-11.366 7.061c-21.625.022-45.472 1.66-71.54 4.911l-31.248-.525c-26.7 2.793-47.59 5.981-62.674 9.565l-33.914-3.367c-28.872 1.146-74.716 2.225-137.464.295-18.484-.568-41.956-2.546-70.585-2.992l-29.756-4.37c-18.75-.109-41.142-2.325-67.176-6.648l-27.092-13.127 39.99 2.575-18.375-6.821c-25.05-4.608-48.207-10.128-69.473-16.56l-24.225-24.891 2.094-4.722-42.987 5.613-31.511-3.796-18.249-24.87Z" style="fill:#000;fill-opacity:1;stroke-linejoin:miter"/></svg>